<svg width="2014" height="676" viewBox="0 0 2014 676" fill="none" xmlns="http://www.w3.org/2000/svg">
<g clip-path="url(#clip0)">
<path d="M1393.06 636.569C1374.81 651.6 1379.97 637.445 1368.89 643.714C1368.39 636.637 1363.64 647.354 1360.72 645.13C1358.22 643.31 1355.97 644.456 1353.31 644.725C1345.81 644.59 1345.72 654.701 1338.47 651.6C1334.22 650.185 1331.8 654.027 1329.22 649.578C1326.05 650.118 1324.8 653.286 1321.05 652.14C1316.14 653.083 1309.72 654.634 1303.89 656.925C1302.72 655.982 1301.14 654.634 1298.89 656.858C1301.55 647.219 1296.47 657.465 1292.47 653.623C1288.3 650.118 1282.64 659.824 1279.47 653.353C1269.72 655.308 1260.97 654.768 1253.63 658.678C1239.22 659.824 1223.72 659.217 1209.63 662.79C1207.22 663.531 1205.97 662.048 1205.13 659.959C1199.88 666.092 1191.05 658.071 1183.55 661.037C1168.05 657.532 1174.63 658.88 1163.38 662.924C1164.3 659.824 1161.13 661.307 1159.46 661.846C1158.3 658.611 1154.3 660.565 1152.05 661.846C1146.46 661.037 1140.96 666.632 1137.63 660.363C1131.05 664.475 1124.71 658.543 1119.13 666.901C1116.21 662.655 1099.46 663.868 1091.13 667.44C1085.63 662.048 1079.71 671.283 1076.79 667.238C1070.38 672.091 1061.71 664.407 1054.38 668.384C1051.63 666.766 1051.46 669.463 1050.04 670.474C1044.79 663.059 1023.38 667.845 1017.04 673.844C1015.37 671.822 1013.71 669.463 1010.04 671.62C1008.62 670.339 1007.96 668.317 1005.04 669.058C1002.29 667.643 999.457 665.486 996.041 667.778C990.79 671.215 984.54 666.295 978.957 671.283C974.873 666.16 968.623 671.417 962.289 668.317C951.955 668.654 956.539 664.34 946.122 670.271C946.372 665.486 940.872 669.867 936.871 668.519C904.203 662.453 914.621 683.618 900.537 671.283C893.12 684.022 871.369 660.161 864.785 672.9C862.952 676.675 862.535 676.742 857.868 675.057C850.951 672.698 846.534 670.002 837.534 669.395C831.034 667.575 830.95 674.248 825.95 675.125C824.533 669.193 822.033 667.171 814.533 668.923C809.116 667.643 815.2 662.25 810.116 664.003C803.699 668.991 793.949 658.004 791.865 668.789C786.532 672.563 782.865 666.632 785.032 662.722C782.782 668.452 780.115 661.981 771.698 667.508C767.781 652.005 751.78 675.394 758.281 662.25C748.78 656.858 749.614 671.62 738.197 661.711C729.613 661.374 720.196 663.194 717.362 659.959C715.112 659.959 712.362 660.633 711.195 659.824C706.945 657.869 705.112 661.239 703.362 657.667C697.612 663.464 686.278 649.578 683.444 657.869C685.278 663.059 670.11 650.117 662.277 655.914C662.277 654.162 651.276 650.522 653.776 655.51C649.693 653.825 646.109 651.735 641.443 653.488C644.943 656.454 652.86 656.184 643.276 660.026C641.943 657.599 640.109 656.454 636.442 657.262C632.526 650.994 629.442 660.228 626.692 655.173C628.192 654.162 628.109 650.589 626.025 653.151C626.692 659.285 607.858 649.578 601.691 647.893C607.858 653.218 597.607 651.331 594.024 649.376C605.274 645.13 591.357 650.118 584.857 646.882C580.107 645.804 578.94 648.5 576.607 651.668C574.44 645.601 565.606 646.815 560.856 642.636C555.106 640.344 550.272 648.298 544.939 643.849C542.188 643.579 540.272 643.849 538.855 641.22C533.605 639.872 529.105 639.198 522.604 638.794C517.521 636.974 516.854 640.411 514.187 642.973C511.271 641.894 508.937 640.613 509.854 636.637C507.937 638.591 507.27 641.827 505.27 640.209C502.27 633.603 494.603 643.04 491.186 637.176C483.353 638.861 488.603 632.66 481.603 634.951C475.769 626.661 459.518 633.132 452.685 625.178C448.851 620.527 444.268 627.807 440.934 623.762C439.267 622.347 437.934 622.145 436.934 624.369C433.934 623.358 432.267 621.605 429.017 622.347C426.267 620.931 420.267 621.134 418.767 618.64C399.183 618.707 392.099 615 372.431 611.697C362.764 610.753 354.847 604.889 345.264 605.496C343.93 603.945 340.013 605.9 340.013 602.597C335.93 602.597 333.68 606.237 331.013 602.395C329.846 600.643 328.096 601.047 326.43 602.395C323.929 601.856 322.929 599.699 319.679 600.238C313.262 598.081 301.178 591.139 294.762 593.498C292.511 589.588 288.511 588.982 283.761 589.521C275.261 583.994 266.844 581.972 256.76 581.5C247.926 580.961 242.759 575.029 233.926 574.692C230.009 580.489 220.342 571.119 217.175 573.681C211.508 569.839 215.092 565.66 210.758 569.974C207.425 568.962 208.508 566.738 208.425 564.918C197.674 564.109 190.674 558.919 179.757 558.65C178.923 553.19 174.673 557.099 170.09 554.133C171.506 550.831 168.59 553.594 166.923 554.47C164.59 551.977 161.839 548.674 157.756 550.965C151.172 554.673 152.089 546.112 146.839 545.708C144.339 544.899 141.255 544.966 140.172 542.54C137.922 539.305 135.088 542.607 134.172 538.563C132.171 535.665 129.421 537.687 129.671 540.383C126.505 540.45 129.255 537.282 126.838 536.945C123.921 542.001 120.921 540.653 117.504 536.204C114.921 545.236 109.504 533.238 107.087 530.407C105.337 528.587 105.587 531.418 105.67 532.631C102.67 532.901 101.92 530.879 100.587 529.666C98.4201 529.261 95.67 530.003 94.4199 527.509C90.5031 525.015 90.3364 532.564 86.8363 530.812C81.5027 528.25 77.2525 525.824 75.2525 520.97C73.1691 517.937 66.6688 518.207 65.8354 515.106C64.3354 508.096 51.3348 510.792 47.8347 505.4C43.5845 505.939 43.0011 505.535 43.1678 501.154C39.001 501.423 36.3342 501.221 34.5008 499.064C25.7504 499.199 33.1674 491.582 26.0838 490.301C21.9169 488.347 14.9166 486.931 16.25 482.011C12.5832 482.617 11.1665 480.595 10.1664 478.169C-0.417332 475.809 17.5834 460.239 4.66621 461.857C4.33286 458.756 7.24965 457.475 7.16632 455.049C4.83289 455.049 5.83293 461.048 1.08273 459.565C-4.66751 453.97 9.08306 447.028 5.74959 440.085C1.74942 438.872 0.999393 437.321 2.91614 433.749C11.5832 419.864 -0.000648022 428.222 1.41608 421.549C23.0836 394.857 30.834 363.311 48.5014 334.462C64.8354 332.642 60.8352 309.388 74.4191 305.68C72.0023 299.142 83.4195 305.613 82.7528 299.075C90.6698 300.221 92.6699 280.539 102.17 286.74C112.254 284.178 108.504 271.641 120.588 276.966C126.338 272.989 127.588 266.114 135.922 265.035C135.338 265.507 141.755 252.296 146.422 260.048C149.006 263.081 148.255 258.767 152.172 258.632C147.172 251.42 161.173 256.138 158.673 248.724C162.006 245.421 177.007 249.937 166.256 242.927C167.84 238.68 177.59 230.053 175.673 239.152C180.59 244.207 188.84 232.614 197.091 234.097C194.424 231.805 193.341 230.794 190.341 232.614C189.257 230.861 194.007 226.48 196.174 230.592C199.841 227.154 203.591 220.211 209.925 224.054C210.341 222.166 214.675 219.335 212.258 217.178C213.675 213.673 221.925 215.628 218.758 211.584C221.675 213.606 224.842 215.965 222.925 218.661C228.425 219.47 226.675 217.785 224.009 216.032C228.842 214.954 229.926 211.044 235.092 210.775C239.093 209.225 240.093 205.517 244.426 203.967C255.927 202.619 259.76 204.439 256.01 194.733C260.844 187.857 268.094 198.305 282.761 186.779C288.345 183.813 293.428 176.129 300.512 181.723C303.845 180.443 305.762 177.881 309.179 178.69C314.096 174.444 316.096 166.962 323.679 165.951C327.18 166.018 326.513 162.176 330.43 162.513C330.68 162.513 331.096 161.367 331.513 160.626C336.097 162.378 338.93 169.793 344.93 164.266C351.514 159.817 358.681 151.526 367.931 157.256C376.182 159.682 373.765 147.482 381.849 146.606C393.349 146.606 402.266 142.629 416.517 144.314C426.85 120.857 436.767 144.112 442.934 128.676C444.018 126.115 447.101 125.441 449.435 124.834C462.268 122.677 466.769 132.653 473.852 118.161C482.936 124.025 487.436 116.341 490.603 109.668C508.437 123.082 505.937 106.433 513.104 115.667C518.354 112.701 520.938 109.803 525.104 115.667C531.105 109.533 539.105 107.579 546.605 102.995C559.189 123.823 558.356 92.4125 567.523 100.771C570.856 108.657 575.857 101.984 575.773 96.5242C579.107 97.0634 579.69 99.0855 582.773 99.0181C585.857 101.377 592.19 98.7485 592.274 104.073C597.857 98.8833 589.774 98.0071 586.274 95.3783C590.607 88.166 592.44 101.04 600.941 94.0302C595.607 94.9739 594.441 89.9859 599.274 89.6489C608.858 94.0976 604.524 87.5594 611.691 88.0312C612.441 94.0976 631.609 80.9537 637.526 80.0775C644.026 83.5825 647.026 87.0875 652.943 79.2686C645.193 77.5835 650.943 68.9557 657.61 72.663C654.443 75.6288 652.776 80.2797 657.443 76.3028C659.443 67.2706 669.444 73.8088 675.361 72.663C680.444 69.2253 689.195 68.8209 691.528 74.8873C693.695 71.8541 697.945 70.7756 698.362 66.664C700.528 68.8209 701.028 71.6519 705.195 71.7867C704.029 69.832 702.362 67.9446 705.445 66.664C709.529 75.3591 708.112 64.1026 711.112 63.4285C711.445 65.5855 714.529 67.1358 712.529 69.832C711.862 70.7756 714.112 73.1348 715.112 72.663C718.279 71.3823 718.779 74.011 720.612 74.7525C727.446 71.1801 719.779 70.9778 726.279 64.1026C730.863 64.3722 730.696 68.1469 734.113 70.169C726.696 70.5734 730.946 73.9436 728.029 77.8531C735.946 75.2917 736.363 68.012 746.03 68.2143C736.947 73.4718 753.281 71.7867 745.364 76.0332C749.78 78.1227 756.364 71.5171 754.781 68.9557C755.697 65.3833 759.781 69.0231 760.697 64.7766C764.364 68.1469 756.364 68.6187 758.697 74.3481C771.781 67.0684 757.781 60.4627 772.115 60.9346C800.032 50.3521 823.2 53.4527 850.534 44.0834C854.951 44.8249 859.868 46.1056 864.202 44.6901C868.952 44.7575 870.285 40.3088 875.119 40.511C878.702 40.2414 887.953 46.0382 884.536 38.6911C896.536 44.8249 893.536 29.8611 903.203 34.0402C908.704 39.0955 907.037 32.2202 912.037 34.0402C922.371 36.1971 905.954 24.4013 928.205 32.6921C918.037 27.5019 926.288 24.4013 933.455 31.0744C931.121 27.9063 930.955 26.019 937.038 28.9174C942.538 32.6247 942.038 33.8379 942.038 27.9738C948.039 30.6025 950.539 24.1991 955.372 29.8611C958.039 23.5925 970.79 39.2303 968.123 28.3108C966.539 23.3228 971.623 28.0412 972.873 30.4677C976.706 26.6257 981.207 27.9738 984.04 23.1206C990.04 24.1991 987.54 30.7373 991.957 30.2655C994.791 29.1196 997.041 29.7263 999.707 31.1418C995.207 24.9405 996.457 22.0422 1003.37 30.5351C1007.54 25.0754 1013.21 30.1307 1020.37 30.1307C1023.63 26.6931 1027.88 29.5241 1032.71 29.2544C1030.29 26.9627 1029.21 27.6367 1026.13 27.2323C1026.63 23.5251 1032.79 22.7836 1029.71 25.7494C1038.13 25.2776 1045.63 28.7152 1053.96 25.8168C1058.79 29.3218 1058.71 29.187 1060.29 24.6709C1068.71 26.4909 1084.13 21.2333 1088.38 25.345C1090.88 23.8621 1095.04 20.6267 1098.29 21.4355C1100.79 23.4577 1101.88 22.1096 1103.05 20.4919C1105.96 19.683 1111.13 19.7504 1114.63 21.0985C1130.55 20.0874 1132.3 6.3369 1137.71 19.8852C1140.88 15.7735 1143.63 10.0442 1149.96 12.8077C1152.3 12.6055 1152.3 8.89827 1156.05 9.70713C1161.71 12.6055 1165.96 10.9878 1171.05 14.7625C1192.63 -1.0776 1195.13 17.4586 1204.47 8.42644C1207.3 13.0774 1207.47 8.02201 1209.3 6.53912C1216.47 11.9315 1226.8 -0.336146 1236.05 9.90934C1242.47 12.3359 1252.97 6.47171 1259.22 4.11255C1260.72 10.9204 1269.55 5.19102 1274.97 6.20209C1282.89 9.77453 1294.22 9.70713 1301.97 8.29163C1325.05 -0.605764 1292.05 17.5935 1323.14 3.97774C1326.05 6.3369 1322.47 6.67392 1321.72 8.15682C1327.22 6.74133 1331.05 10.3812 1336.05 6.87614C1340.89 -0.53836 1358.97 15.9083 1358.06 2.02301C1359.56 -1.01019 1359.81 2.49484 1360.39 4.51698C1363.47 3.97774 1366.22 3.43851 1370.14 2.69706C1370.97 7.28057 1377.89 8.35904 1374.72 2.09042C1384.06 4.11255 1395.81 4.98881 1407.06 0.472708C1407.89 -0.133933 1409.56 0.0682807 1410.89 -0.0665283C1411.06 6.67392 1420.81 2.56225 1426.89 3.03408C1422.31 6.40431 1443.56 9.3027 1445.39 6.2695C1450.31 8.83087 1457.56 9.77453 1462.81 8.08942C1463.56 13.8862 1467.31 8.29163 1472.73 6.74133C1476.98 11.4596 1483.14 12.4033 1488.14 7.95461C1495.64 9.70713 1499.98 11.3922 1509.48 7.8198C1507.56 16.4476 1518.65 9.03308 1524.4 11.1226C1519.4 20.8289 1537.65 9.57232 1543.15 10.853C1542.73 17.4586 1546.31 16.3128 1552.65 14.8299C1554.06 20.0874 1559.31 17.9305 1563.06 19.1438C1563.56 19.683 1560.56 21.3681 1564.06 21.7051C1568.9 15.0995 1575.65 20.4919 1579.4 25.5472C1586.06 12.4033 1589.9 28.176 1594.65 26.356C1602.23 22.7162 1606.9 32.5573 1615.98 27.3671C1623.9 36.8712 1620.48 30.4003 1632.9 31.2092C1632.15 33.4335 1648.9 45.4989 1649.07 39.0955C1654.82 36.8037 1648.4 46.1056 1657.07 42.3983C1659.32 41.7917 1663.57 42.8702 1665.57 44.4205C1666.98 41.6569 1673.9 34.9838 1675.4 40.7806C1690.15 47.0492 1673.82 48.6669 1695.07 46.7122C1692.4 51.0935 1693.15 51.9698 1699.32 52.509C1710.49 57.4295 1704.49 52.7112 1713.82 53.1156C1715.15 55.2052 1708.99 56.2162 1712.82 58.7776C1723.49 48.2625 1721.4 67.8772 1732.9 60.7324C1737.4 66.5291 1746.74 55.8792 1743.15 66.5291C1745.32 65.0462 1746.99 63.4285 1748.57 65.6529C1754.57 68.6187 1761.24 73.4044 1770.99 70.843C1765.74 80.4819 1776.91 77.3139 1784.32 77.7857C1779.41 82.4366 1784.74 83.8521 1788.49 86.8179C1795.16 90.4578 1809.32 80.3471 1798.16 95.0413C1801.07 96.3219 1801.32 96.3219 1804.16 94.6368C1808.24 98.0745 1818.41 94.7716 1817.16 102.051C1819.74 102.725 1825.41 101.579 1822.74 105.085C1825.57 107.511 1829.49 106.298 1832.83 108.859C1829.08 114.252 1836.33 112.364 1838.58 116.071C1844.08 114.791 1845.91 121.396 1852.16 121.396C1855.16 124.901 1858.24 131.709 1865.49 125.238C1875.74 126.182 1859.58 129.62 1871.99 133.799C1874.16 136.967 1874.16 136.967 1878.99 137.371C1879.41 143.573 1885.91 148.695 1894.99 148.021C1891.58 151.863 1898.99 150.043 1899.24 154.02C1901.33 153.279 1903.41 152.403 1905.58 154.155C1899.33 159.143 1905.58 157.997 1909.99 163.592C1912.41 165.277 1915.75 163.996 1918.16 165.075C1919 166.086 1916.5 167.569 1919.25 168.175C1920.16 168.243 1918.16 174.174 1922.16 171.748C1929.5 167.906 1925.58 177.275 1936.91 176.129C1931.58 183.476 1944.08 183.88 1948.75 188.194C1949.16 192.576 1952.5 193.452 1955.83 196.89C1947.75 207.405 1954.16 205.315 1963.33 208.55C1960.66 214.819 1969.33 214.28 1971.83 219.066C1972.75 221.897 1977.08 229.109 1982.08 227.896C1981.25 230.794 1983.41 231.805 1986.41 232.209C1985.75 235.108 1986.5 237.332 1989.08 238.276C1988.66 240.433 1991.92 239.354 1992 240.837C1990.25 244.949 1993.5 247.915 1996.83 250.881C1995 253.914 1992.42 256.812 1997.17 259.441C1994.5 263.687 1997.33 266.181 2001.25 268.271C1996.83 274 2001.58 271.641 2000.92 279.595C2004.17 278.382 2003.58 281.684 2005.58 281.887C2006.33 283.302 2003.17 284.313 2005.33 285.594C2007.42 288.964 2007.17 290.649 2004.5 294.559C2004.5 298.199 2006.25 302.782 2009.08 305.546C2007.58 308.646 2001.75 323.273 2010.5 315.454C2010.92 318.42 2010.5 318.622 2013.42 319.566C2007.75 328.194 2016.17 337.495 2007.17 346.999C2005.17 352.19 2008.42 357.312 2003.25 362.165C2002 362.435 2001.83 359.671 1999.67 359.941C1996.17 368.569 2005.42 359.334 1999.75 372.276C2004.92 369.243 2006.5 375.511 2002.5 378.477C1991.5 370.928 2006.75 393.711 1993.17 380.904C1991 383.33 1988.33 382.522 1985.16 381.51C1988.75 386.768 1986.75 385.69 1981.33 383.87C1993.08 394.048 1987.16 393.508 1979.58 404.091C1970.5 409.618 1979.75 416.561 1969.25 416.291C1971.91 419.459 1976 425.93 1967.83 424.245C1966.66 425.93 1971.83 427.48 1967.75 429.3C1962.75 425.795 1964.5 430.177 1963.41 433.075C1961.91 433.547 1959.5 433.345 1959.75 435.771C1959.91 436.513 1955.5 437.052 1957 438.535C1959.5 439.681 1968 442.444 1960.08 441.905C1959.08 444.871 1959.25 449.791 1955.08 450.533C1947.33 449.117 1949.25 455.723 1944.08 458.015C1944.91 460.913 1941.5 462.059 1940.33 464.148C1939 467.923 1941.08 475.54 1933.08 470.821C1931.41 478.034 1929.33 490.638 1918 490.436C1920.66 494.817 1911.5 494.548 1909.75 498.255C1902.08 500.682 1903.83 504.187 1897.58 508.433C1894.16 512.343 1896.66 513.489 1889.91 512.343C1887.16 518.881 1888.74 520.701 1877.91 519.555C1886.66 525.891 1874.24 521.24 1873.83 526.093C1873.83 531.755 1867.08 526.767 1866.91 532.362C1863.24 532.497 1860.08 532.766 1858.58 536.339C1856.58 540.046 1855.83 540.248 1851.83 537.956C1846.83 539.911 1849.41 548.404 1841.16 545.101C1832.74 542.001 1837.16 550.696 1831.74 553.122C1827.57 548.674 1826.66 559.054 1816.49 555.616C1813.07 554.875 1812.32 558.178 1816.07 558.717C1814.16 561.481 1808.91 561.076 1808.32 565.053C1808.91 567.008 1811.74 565.862 1813.41 566.671C1812.16 570.243 1809.99 568.962 1807.57 567.21C1806.07 565.862 1804.82 567.21 1803.57 568.019C1802.07 566.469 1794.74 563.435 1799.24 568.019C1794.66 572.805 1782.91 566.536 1779.32 574.153C1774.32 574.153 1764.66 568.491 1765.66 574.624C1764.07 576.647 1761.82 574.557 1759.49 575.029C1758.74 578.197 1754.41 577.658 1751.91 579.343C1748.24 580.084 1742.65 576.31 1740.24 580.691C1731.9 584.331 1722.99 589.453 1712.24 586.69C1710.32 589.656 1707.9 589.386 1705.07 589.925C1705.65 592.621 1704.65 593.363 1701.32 593.026C1687.32 589.184 1681.07 597.07 1667.57 594.307C1666.98 601.249 1657.9 593.498 1655.82 598.418C1669.65 602.934 1650.98 601.317 1645.57 600.71C1638.4 609.203 1626.32 603.406 1616.48 604.822C1643.9 611.697 1580.81 603.676 1604.48 608.394C1612.57 614.056 1593.32 607.585 1591.15 610.821C1584.98 611.562 1579.15 609.473 1573.06 611.764C1561.98 614.393 1593.23 621.201 1552.73 614.326C1549.81 613.449 1547.23 616.28 1551.9 616.078C1544.65 621.201 1529.06 615.404 1518.9 617.561C1511.65 616.28 1509.81 623.965 1501.39 621.268C1497.06 620.594 1496.64 623.088 1494.81 625.784C1490.73 626.122 1485.89 623.628 1482.98 626.863C1472.48 630.166 1456.56 621.673 1450.64 632.929C1448.14 635.289 1447.89 633.94 1448.81 630.975C1444.23 628.885 1444.23 628.885 1441.23 629.761C1441.06 632.12 1445.23 633.469 1443.56 636.3C1441.06 632.727 1439.64 627.47 1434.64 631.784C1422.06 628.009 1435.73 637.108 1427.89 633.064C1414.31 641.422 1430.98 624.639 1402.89 636.839C1407.81 632.053 1398.14 629.424 1398.56 635.558C1398.56 628.481 1390.14 632.39 1393.06 636.569ZM908.12 54.9356C918.621 56.4859 903.037 47.7233 908.12 54.9356C903.37 52.846 903.12 57.6317 908.12 54.9356ZM1613.98 75.0221C1599.9 68.3491 1623.4 84.1217 1629.57 79.2012C1625.9 75.4939 1621.07 79.0664 1613.98 75.0221ZM855.118 50.015C861.618 52.0372 861.118 46.6448 855.118 50.0824C850.201 43.8812 845.368 50.6217 855.118 50.015ZM1772.66 539.709C1751.74 538.9 1771.49 548.404 1772.57 539.641C1783.32 543.012 1785.91 532.092 1772.66 539.709ZM1698.32 559.324C1693.15 561.885 1683.24 553.594 1689.99 561.818C1678.74 557.638 1671.57 569.299 1679.07 575.096C1677.9 571.456 1679.32 563.098 1685.15 567.884C1688.15 564.042 1692.57 562.829 1696.9 560.672C1699.32 558.919 1704.57 563.098 1708.32 558.313C1719.49 558.65 1702.57 552.044 1698.32 559.324ZM1027.79 538.496C1025.63 527.981 1008.12 543.484 1000.62 537.619C995.957 537.822 992.374 542.27 986.79 540.518C972.956 544.023 996.957 544.629 1001.71 545.236C1009.62 548 1015.71 541.124 1023.29 543.753C1033.71 545.641 1079.96 542.203 1045.04 539.507C1055.29 532.564 1048.13 533.912 1040.21 536.204C1053.29 537.35 1030.79 539.776 1027.79 538.496ZM1285.8 37.006C1281.55 38.6237 1279.39 39.7021 1278.72 35.0512C1277.55 38.8933 1276.72 39.4325 1272.55 38.0844C1266.39 42.5331 1269.14 28.0412 1262.55 40.1066C1260.97 29.5241 1253.13 41.1176 1247.05 37.8822C1243.55 34.3098 1240.88 40.174 1237.3 38.2866C1236.97 32.5573 1235.88 35.3883 1233.3 37.8822C1230.72 38.354 1231.05 39.6347 1230.72 40.6458C1241.55 45.4315 1248.13 38.8259 1257.8 42.9376C1267.05 46.9144 1276.39 41.5895 1286.22 42.8702C1287.89 48.9366 1293.3 43.2746 1297.39 43.7464C1305.89 46.2404 1335.3 39.7695 1314.97 39.1629C1308.39 41.0502 1302.3 39.4325 1295.8 37.8822C1292.55 40.4436 1287.39 40.9828 1285.72 36.9386C1290.97 35.3883 1285.39 32.8943 1285.8 37.006ZM1120.3 82.167C1116.46 84.9306 1123.63 88.3682 1120.46 77.1791C1124.55 72.7978 1128.13 74.7525 1134.46 75.1569C1141.88 66.9336 1127.21 74.0784 1122.96 69.5623C1112.96 64.6418 1116.21 71.4497 1109.46 69.0905C1106.46 67.675 1103.38 69.832 1100.29 69.0905C1092.21 69.0905 1080.96 65.5181 1078.71 72.3933C1076.88 69.8994 1074.29 65.5181 1070.29 67.675C1065.38 71.5845 1058.63 72.9326 1056.21 66.4617C1055.38 70.843 1049.04 72.7304 1045.46 70.1016C1048.46 77.4487 1042.71 71.8541 1039.54 72.7978C1033.04 81.5603 1050.63 78.3923 1055.88 75.1569C1062.54 82.9758 1080.71 73.6066 1085.29 77.9205C1090.46 77.1117 1095.21 79.9426 1100.38 77.0443C1103.05 78.0553 1101.8 80.0775 1106.13 81.0885C1112.88 75.2243 1110.88 80.2123 1118.21 79.5382C1117.3 81.5603 1117.21 82.9758 1120.3 82.167ZM1641.07 569.232C1637.48 570.108 1629.82 565.66 1634.23 571.254C1629.65 572.4 1614.23 567.884 1622.07 573.748C1613.4 573.816 1609.98 570.715 1603.23 576.31C1599.57 570.58 1596.65 575.164 1592.57 576.444C1589.73 576.579 1588.48 577.59 1588.15 579.68C1584.23 582.039 1581.48 573.276 1576.98 581.028C1570.9 577.388 1567.48 582.578 1560.81 582.039C1558.06 582.78 1556.98 587.297 1553.81 587.162C1553.31 582.106 1550.81 586.218 1547.06 585.14C1542.81 585.274 1537.31 591.61 1535.65 594.374C1522.65 593.093 1522.48 590.465 1512.81 597.475C1498.23 593.97 1480.23 606.439 1478.39 602.395C1468.73 604.552 1462.89 610.551 1477.89 607.855C1478.56 607.855 1483.89 611.09 1484.14 606.709C1486.89 604.282 1498.31 611.023 1500.39 605.226C1503.23 603.204 1503.06 605.159 1502.73 607.248C1507.48 604.552 1512.9 606.17 1516.81 603.474C1521.23 603.676 1525.48 605.968 1528.9 602.193C1531.73 603.137 1533.56 605.698 1536.98 603.743C1542.81 602.125 1566.15 602.597 1560.65 600.912C1560.31 598.688 1558.06 599.632 1556.23 599.429C1557.56 597.609 1559.31 597.475 1561.15 597.542C1600.65 599.362 1565.4 595.587 1581.81 592.419C1603.65 594.913 1600.57 589.453 1617.57 588.577C1618.32 584.128 1624.65 587.971 1626.73 584.466C1630.23 588.442 1631.4 576.916 1636.4 582.983C1637.57 577.59 1646.98 581.23 1651.98 580.219C1655.23 572.939 1656.57 581.567 1665.82 571.187C1664.15 575.636 1667.4 572.939 1669.65 571.793C1672.07 572.333 1669.65 575.905 1673.24 574.49C1672.07 570.85 1673.9 566.334 1668.15 565.592C1664.65 562.963 1661.65 565.12 1658.48 565.66C1666.9 568.019 1656.73 570.041 1655.07 566.266C1652.98 565.997 1650.48 567.075 1649.57 568.828C1646.15 574.085 1644.57 564.177 1641.07 569.232ZM766.614 95.7153C756.947 93.2213 742.78 103.399 733.696 98.3441C728.113 96.5242 723.863 104.882 717.779 101.579C714.279 100.771 711.112 103.939 707.445 102.995C696.112 110.342 701.362 98.4115 687.444 109.668C681.194 107.444 676.694 110.14 672.777 113.712C666.444 107.578 656.693 117.083 665.86 117.891C669.36 113.308 669.944 119.442 672.277 122.205C677.777 118.97 683.528 113.51 689.695 115.33C691.195 114.454 692.528 117.487 694.278 115.397C695.028 114.521 696.862 115.802 698.445 114.521C706.695 111.151 717.529 113.24 726.863 108.792C730.363 107.916 730.863 108.118 733.446 110.679C741.197 104.478 750.697 104.006 760.697 102.86C812.616 97.0634 857.285 82.5714 908.37 78.3923C916.204 77.1791 925.204 77.9205 933.288 76.0332C936.955 74.2807 940.372 78.4597 943.538 75.4265C949.789 69.5623 955.956 73.4718 962.456 73.2022C967.456 68.2817 973.54 72.3933 979.457 70.169C984.54 65.9225 989.207 71.5171 993.207 67.4054C996.541 72.1911 1001.96 70.7082 1007.21 69.0905C1008.04 61.002 1002.37 67.5402 996.624 66.9336C1001.21 62.4175 989.707 60.3953 990.957 65.8551C981.207 66.5291 973.79 67.1358 964.206 65.5181C959.872 65.6529 956.872 65.7877 954.122 69.3601C946.455 62.0804 927.454 73.4044 915.204 70.3038C903.453 71.3149 906.37 76.4376 893.453 72.3259C880.202 79.336 859.702 76.505 848.201 81.8974C841.617 86.0765 829.7 79.6056 823.95 86.3461C818.45 87.0875 809.033 84.998 804.033 89.7837C799.616 84.1217 788.865 91.671 782.948 92.4799C778.032 95.5805 770.365 90.7274 766.614 95.7153ZM907.37 188.127C934.621 188.801 964.373 182.667 991.624 180.308C997.457 181.521 1057.38 179.971 1035.29 177.207C1021.21 164.535 832.284 192.171 907.37 188.127ZM1462.14 606.439C1452.73 606.776 1442.23 610.012 1434.81 606.642C1432.56 609.001 1430.39 610.484 1426.06 609.203C1419.47 607.787 1408.89 615.067 1420.31 615.404C1430.14 611.764 1424.39 615.876 1432.89 616.011C1435.56 612.843 1443.56 616.483 1447.64 613.989C1440.89 610.753 1447.48 609.877 1450.98 610.281C1455.81 608.664 1459.48 612.034 1456.14 615.539C1467.39 615.404 1459.64 612.843 1462.14 606.439ZM980.457 543.551C972.123 536.541 960.372 540.181 949.705 539.776C902.62 538.63 969.373 548 980.457 543.551ZM1323.05 43.8812C1332.3 44.2182 1340.64 42.3309 1349.39 43.9486C1352.89 45.6337 1353.56 46.5774 1356.64 44.2856C1366.97 38.6237 1320.39 36.6689 1323.05 43.8812ZM1214.88 35.3883C1205.88 43.8138 1221.8 42.4657 1228.22 40.2414C1227.55 35.5231 1226.72 30.4677 1223.72 37.68C1219.55 37.4104 1216.55 40.3088 1214.88 35.3883ZM1766.74 292.132C1764.57 296.648 1758.74 297.255 1757.41 301.164C1763.16 306.759 1774.66 296.176 1766.74 292.132ZM1987.75 372.276C1990.75 363.85 1990.75 362.098 1987.33 359.537C1987.58 364.188 1986 367.153 1980 365.738C1988.58 371.467 1978.83 373.017 1987.75 372.276ZM1594.15 329.407C1588.48 325.834 1583.81 330.62 1585.98 334.058C1589.73 337.158 1596.07 334.395 1594.15 329.407ZM648.276 114.252C644.443 116.746 644.193 118.7 647.109 124.834C648.776 121.127 650.36 117.891 648.276 114.252ZM937.622 547.123C940.288 551.572 946.289 546.719 950.872 549.887C958.456 544.36 947.955 548.337 944.539 547.528C942.038 545.775 940.122 547.326 937.622 547.123ZM615.691 94.0302C611.775 94.0976 615.775 99.4226 615.691 101.579C622.275 99.3551 617.358 96.996 615.691 94.0302ZM1031.54 77.1117C1040.88 75.0221 1033.21 68.3491 1029.46 74.011C1032.21 74.011 1031.96 74.7525 1031.54 77.1117ZM628.275 215.695C624.609 213.067 619.692 217.246 616.358 219.537C621.025 220.886 624.192 216.976 628.275 215.695ZM831.95 59.3169C832.2 62.4175 826.617 62.6871 828.117 66.9336C830.45 63.833 840.034 59.9235 831.95 59.3169ZM793.949 60.9346C795.199 58.7776 779.032 58.4406 784.532 63.2937C786.449 59.5191 789.449 61.339 793.949 60.9346ZM1784.82 533.44C1786.99 534.788 1794.16 536.676 1795.16 534.317C1793.57 531.823 1787.91 532.362 1784.82 533.44ZM1434.48 46.6448C1438.14 49.9476 1442.81 49.5432 1446.98 50.4869C1444.56 46.3078 1439.48 47.6559 1434.48 46.6448ZM1379.64 639.333C1379.72 636.165 1379.31 634.345 1375.14 635.895C1373.97 639.67 1374.72 640.074 1379.64 639.333ZM1681.32 99.1529C1682.82 97.1308 1686.9 94.5694 1683.15 93.5584C1678.49 93.0191 1679.4 96.7938 1681.32 99.1529ZM952.705 572.198C955.289 573.681 957.622 575.905 961.456 574.085C959.289 572.265 955.706 571.389 952.705 572.198ZM1991.33 342.753C1989.33 345.045 1987.41 349.156 1991.25 351.313C1992.83 347.808 1992.17 346.056 1991.33 342.753ZM927.288 556.425C931.538 559.121 939.455 559.121 942.538 557.369C937.538 557.032 932.788 556.762 927.288 556.425ZM713.195 75.9658C708.695 75.0895 708.529 77.7857 706.779 78.9316C707.445 82.7062 711.529 77.7857 713.195 75.9658ZM1514.73 57.4969C1509.56 54.1941 1506.73 54.0593 1505.48 56.6207C1508.56 56.8903 1511.65 57.2273 1514.73 57.4969ZM814.2 62.3501C810.116 61.7434 808.616 62.4849 808.116 65.1136C810.95 65.5855 812.95 64.9114 814.2 62.3501ZM1375.56 43.2072C1371.39 42.8027 1371.14 40.511 1367.22 40.6458C1370.31 43.2072 1371.14 46.173 1375.56 43.2072ZM1162.8 66.1921C1160.8 69.8994 1166.13 72.3259 1167.96 68.2817C1166.3 67.6076 1164.71 67.001 1162.8 66.1921ZM1406.72 616.483C1401.22 612.978 1401.22 612.978 1398.81 613.045C1400.47 615.202 1403.97 616.752 1406.72 616.483ZM1186.38 35.7927C1183.88 36.3319 1181.63 36.6015 1181.8 39.2977C1185.13 39.2303 1187.55 39.0281 1186.38 35.7927ZM1401.97 8.02201C1405.31 5.46064 1405.39 4.98881 1403.22 2.69706C1401.14 4.24736 1401.06 5.93247 1401.97 8.02201ZM1994.33 349.156C1991.42 351.381 1990.42 352.459 1994.5 353.74C1996 352.257 1995.83 350.841 1994.33 349.156ZM874.202 44.1508C875.869 45.7685 877.869 45.5663 880.286 45.2967C878.869 42.3309 876.369 43.8138 874.202 44.1508ZM1427.73 48.3973C1427.89 46.1056 1424.14 45.9708 1422.56 47.3189C1424.56 47.7233 1426.14 48.0603 1427.73 48.3973ZM1140.88 69.2927C1138.96 73.4044 1139.21 73.7414 1144.21 73.1348C1143.13 71.7867 1142.38 70.9104 1140.88 69.2927ZM1979.41 378.14C1979.66 381.848 1983 381.106 1983.58 377.938C1982 378.005 1980.91 378.073 1979.41 378.14ZM1374.81 139.528C1375.72 135.956 1371.97 135.754 1369.97 138.652C1371.39 138.922 1372.72 139.124 1374.81 139.528ZM1716.57 554.403C1719.32 556.493 1721.65 554.942 1723.99 554.605C1721.74 554.133 1719.57 552.785 1716.57 554.403ZM1978.33 372.478C1980.33 375.04 1982.66 376.32 1984.16 375.646C1984.5 372.883 1981 373.422 1978.33 372.478ZM1750.41 546.045C1748.49 545.708 1746.99 545.438 1745.15 545.034C1747.07 548.539 1747.49 549.55 1750.41 546.045ZM1540.31 61.2716C1542.4 62.3501 1543.4 63.7656 1545.73 62.013C1544.48 60.3953 1543.06 60.3953 1540.31 61.2716ZM1998 356.369C1997.33 357.38 1996.67 358.323 1995.92 359.402C1999.25 360.008 1999.25 360.008 1998 356.369ZM1023.21 66.3269C1019.71 68.0794 1019.71 68.0794 1020.21 70.5734C1021.46 68.8883 1022.38 67.6076 1023.21 66.3269ZM720.779 85.1328C724.613 85.2676 724.613 85.2676 724.779 81.6952C723.446 82.7736 722.446 83.7173 720.779 85.1328ZM1667.15 91.0644C1671.65 90.9296 1671.65 90.9296 1670.49 87.8964C1669.4 88.9074 1668.57 89.7837 1667.15 91.0644ZM653.86 118.835C656.193 115.263 656.193 115.263 653.443 114.319C653.61 115.869 653.693 117.352 653.86 118.835ZM633.942 127.395C635.859 124.497 635.859 124.497 634.192 122.205C634.109 124.093 634.026 125.441 633.942 127.395ZM1665.82 90.1207C1666.99 87.4245 1664.32 86.4809 1663.32 88.3682C1663.9 88.84 1664.65 89.3119 1665.82 90.1207ZM970.956 573.816C969.539 573.411 968.206 573.007 966.539 572.467C968.123 575.433 968.123 575.433 970.956 573.816ZM1765.91 544.427C1763.82 544.36 1760.57 542.472 1760.32 544.09C1761.91 544.562 1763.24 545.91 1765.91 544.427ZM1779.57 507.018C1780.49 506.276 1779.24 503.782 1777.07 504.793C1774.74 506.344 1778.07 506.613 1779.57 507.018ZM798.366 68.3491C799.449 69.4949 800.199 70.2364 801.032 71.1126C801.699 68.012 801.699 68.012 798.366 68.3491ZM608.525 131.912C610.025 131.17 613.108 131.237 611.525 128.541C610.441 129.822 609.441 130.9 608.525 131.912ZM1688.82 102.186C1691.74 102.119 1692.65 100.636 1693.4 99.0181C1691.82 97.67 1690.32 101.377 1688.82 102.186ZM1616.07 31.4114C1612.73 31.0744 1612.73 31.0744 1611.4 33.6357C1613.48 33.2313 1614.82 32.5573 1616.07 31.4114ZM1739.32 551.505C1737.99 549.617 1736.4 549.28 1734.65 550.831C1736.15 551.033 1737.74 551.302 1739.32 551.505ZM794.449 64.7092C791.699 64.17 789.949 65.9899 792.199 67.1358C792.865 66.4617 793.532 65.7203 794.449 64.7092ZM915.787 577.523C914.454 575.635 913.704 574.759 911.12 576.242C912.787 576.714 913.871 576.984 915.787 577.523ZM825.117 71.1126C824.117 69.8994 823.533 69.2253 822.95 68.5513C821.45 70.5734 821.867 71.1126 825.117 71.1126ZM775.698 62.8893C774.031 62.013 772.698 62.1478 771.948 63.7656C773.198 63.4959 774.448 63.1589 775.698 62.8893ZM1013.37 77.9205C1011.21 76.6398 1010.12 76.5724 1008.12 77.9205C1010.12 77.9205 1011.29 77.9205 1013.37 77.9205ZM1676.07 564.312C1674.15 561.683 1671.99 562.492 1669.9 563.098C1671.74 563.435 1673.57 563.84 1676.07 564.312ZM638.192 211.584C636.109 211.786 634.776 211.921 633.109 212.123C635.026 213.673 636.276 213.471 638.192 211.584ZM928.705 547.326C928.454 548.809 931.538 549.213 932.788 547.326C931.205 547.326 929.955 547.326 928.705 547.326ZM719.612 79.8078C721.863 78.999 722.279 78.7294 721.779 76.9768C719.946 77.5835 719.946 78.0553 719.612 79.8078ZM1591.32 69.2927C1589.82 70.843 1593.4 71.9215 1596.32 70.9104C1594.07 70.169 1592.73 69.6972 1591.32 69.2927ZM1176.71 82.504C1176.3 83.9869 1178.05 83.3803 1179.3 83.3129C1179.63 81.8974 1177.8 82.5714 1176.71 82.504ZM834.034 57.2273C835.701 57.2273 836.951 58.7776 838.201 56.7555C836.867 55.8792 835.701 55.5422 834.034 57.2273ZM1814.99 525.554C1812.74 524.138 1811.16 526.565 1812.74 527.576C1813.41 526.969 1814.07 526.43 1814.99 525.554ZM907.87 573.074C906.204 573.748 905.12 574.153 903.87 574.692C907.204 576.175 907.204 576.175 907.87 573.074ZM1413.47 632.188C1414.47 631.784 1415.56 631.379 1417.31 630.705C1414.64 629.829 1413.72 630.57 1413.47 632.188ZM1479.73 52.0372C1477.39 50.015 1477.39 50.015 1475.73 51.2957C1476.89 51.4979 1477.81 51.7001 1479.73 52.0372ZM1742.74 549.685C1743.74 548.337 1743.82 548.067 1742.24 547.46C1741.15 548.404 1741.4 548.674 1742.74 549.685ZM566.189 231.468C566.856 233.288 569.023 231.266 570.523 230.996C570.023 229.378 567.523 231.333 566.189 231.468ZM849.868 189.138C850.118 190.891 853.535 190.419 854.785 188.06C852.618 188.464 851.285 188.801 849.868 189.138ZM631.609 125.171C629.442 124.362 630.275 126.991 629.775 128.137C631.692 128.811 631.025 126.182 631.609 125.171ZM1413.64 617.089C1412.56 615.606 1411.89 614.798 1411.31 613.921C1411.22 615.135 1410.39 616.55 1413.64 617.089ZM1210.55 38.8933C1208.88 38.2192 1208.88 39.3651 1208.72 40.4436C1210.05 41.4547 1210.13 39.837 1210.55 38.8933ZM1091.13 85.2676C1090.04 86.7505 1093.71 87.2897 1093.38 85.8742C1092.71 85.6046 1091.88 85.4024 1091.13 85.2676ZM1843.33 540.113C1841.83 540.72 1840.99 541.057 1839.99 541.461C1842.49 542.472 1842.49 542.472 1843.33 540.113ZM1107.21 84.7958C1108.8 85.4024 1108.71 82.5714 1107.38 82.9084C1107.3 83.5151 1107.21 84.1217 1107.21 84.7958ZM529.605 556.695C528.438 555.953 527.771 554.942 526.771 555.953C527.521 557.301 527.521 557.773 529.605 556.695ZM716.362 75.2917C717.362 77.0443 717.362 77.0443 718.779 75.831C717.862 75.6288 717.112 75.4939 716.362 75.2917ZM551.856 145.595C550.189 145.258 550.689 146.269 550.772 147.212C551.939 147.684 551.606 146.201 551.856 145.595ZM635.109 118.902C635.359 117.891 633.526 118.498 632.692 118.363C632.609 119.779 633.942 119.037 635.109 118.902ZM1578.48 27.5693C1579.73 25.8842 1578.65 25.9516 1577.4 25.008C1576.31 25.7494 1577.9 26.4909 1578.48 27.5693ZM1144.05 40.3762C1142.8 39.3651 1142.46 40.7132 1141.8 41.5221C1142.55 42.4657 1143.38 40.848 1144.05 40.3762ZM641.943 211.381C642.776 210.033 640.609 210.303 639.442 209.966C638.692 211.112 641.026 210.977 641.943 211.381ZM1385.81 137.978C1385.31 138.854 1387.06 138.585 1387.81 138.854C1388.22 138.045 1386.47 138.248 1385.81 137.978ZM677.027 88.2334C678.277 87.1549 677.777 87.0875 676.777 86.4809C675.694 87.1549 676.194 87.492 677.027 88.2334ZM1708.9 108.05C1710.57 107.983 1709.15 106.433 1709.07 105.489C1707.99 106.433 1708.24 107.174 1708.9 108.05ZM606.691 99.9618C608.441 99.2878 606.358 98.4789 605.691 97.67C604.108 98.2767 606.108 99.1529 606.691 99.9618ZM1958.33 442.04C1959.41 440.894 1957.5 440.894 1956.5 440.422C1955.5 441.501 1957.41 441.568 1958.33 442.04ZM1655.15 580.489C1656.32 579.612 1656.15 579.275 1654.98 578.804C1653.73 579.208 1654.32 579.882 1655.15 580.489ZM1705.07 572.872C1705.9 572.265 1705.9 571.726 1704.9 571.524C1703.82 571.928 1704.07 572.333 1705.07 572.872ZM1395.22 615.202C1394.47 616.348 1396.81 616.146 1397.72 616.55C1398.56 615.269 1396.22 615.606 1395.22 615.202ZM1779.82 568.423C1780.49 567.412 1778.74 567.614 1777.91 567.277C1777.24 568.423 1778.91 568.154 1779.82 568.423ZM561.523 562.424C560.356 561.548 560.523 561.75 559.856 562.492C560.189 563.031 560.939 562.626 561.523 562.424ZM1243.38 35.2534C1243.97 34.7142 1244.63 34.2424 1243.72 33.9053C1242.38 34.1076 1242.63 34.4446 1243.38 35.2534ZM1992.08 373.287C1991 372.546 1990.5 372.411 1989.92 373.287C1990.08 374.5 1991 373.692 1992.08 373.287ZM769.448 69.2253C769.781 70.3038 770.865 69.2927 771.781 69.0905C771.281 67.8098 770.448 68.7535 769.448 69.2253ZM143.255 266.384C142.672 265.17 142.172 265.305 141.339 266.114C141.505 267.058 142.339 266.923 143.255 266.384ZM165.673 248.993C164.423 249.735 164.089 250.409 165.423 250.881C166.84 250.544 166.84 249.937 165.673 248.993ZM589.357 226.413C589.357 227.693 592.441 226.615 591.857 225.806C591.024 226.008 590.19 226.21 589.357 226.413ZM632.942 214.617C633.192 213.673 631.192 214.145 630.442 213.875C630.025 215.089 631.942 214.415 632.942 214.617Z" fill="#FBE492"/>
<path d="M236.093 208.55C231.426 208.28 233.01 205.179 234.26 202.888C239.177 203.899 237.426 205.516 236.093 208.55Z" fill="#FBE492"/>
<path d="M588.024 649.982C586.357 651.262 586.108 653.285 583.691 652.274C580.941 649.982 585.024 648.566 588.024 649.982Z" fill="#FBE492"/>
<path d="M1392.97 636.636C1397.22 638.523 1389.31 646.477 1388.72 641.691C1391.56 640.882 1393.97 638.928 1392.97 636.636Z" fill="#FBE492"/>
<path d="M1159.3 661.575C1158.63 663.598 1157.8 667.777 1155.13 664.406C1154.96 662.586 1158.05 662.047 1159.3 661.575Z" fill="#FBE492"/>
<path d="M1662.32 39.4316C1658.65 40.4427 1658.15 38.5554 1656.65 36.5332C1659.74 35.7918 1660.24 38.6228 1662.32 39.4316Z" fill="#FBE492"/>
<path d="M611.942 88.0303C611.275 86.6148 608.442 85.8734 610.108 83.7838C613.609 85.7385 612.859 85.806 611.942 88.0303Z" fill="#FBE492"/>
<path d="M864.703 44.824C863.702 43.5433 862.619 42.2626 861.286 40.5775C865.536 40.1057 864.786 42.6671 864.703 44.824Z" fill="#FBE492"/>
<path d="M746.781 63.6299C746.031 65.5846 744.947 66.1238 743.281 64.1017C744.781 63.8995 745.781 63.7647 746.781 63.6299Z" fill="#FBE492"/>
<path d="M753.948 66.3935C754.698 64.1017 754.698 64.1017 758.365 63.2255C756.948 64.3039 755.531 65.2476 753.948 66.3935Z" fill="#FBE492"/>
<path d="M145.339 253.643C144.089 253.171 142.839 252.632 140.756 251.823C143.923 250.812 144.923 251.756 145.339 253.643Z" fill="#FBE492"/>
<path d="M1823.74 561.008C1822.74 560.671 1821.74 560.334 1820.08 559.795C1822.66 558.312 1824.83 559.39 1823.74 561.008Z" fill="#FBE492"/>
<path d="M569.023 96.0514C569.94 96.4558 572.44 96.2536 571.773 97.3321C570.523 97.0625 567.94 97.6017 569.023 96.0514Z" fill="#FBE492"/>
<path d="M625.109 84.6601C622.942 83.5816 623.776 82.0313 625.443 82.4357C625.359 83.0424 625.276 83.7164 625.109 84.6601Z" fill="#FBE492"/>
<path d="M1461.48 629.221C1463.23 630.367 1464.23 631.176 1462.98 632.794C1461.14 632.052 1461.31 630.974 1461.48 629.221Z" fill="#FBE492"/>
<path d="M908.621 33.7697C908.454 31.4779 909.288 29.9276 912.121 31.4779C910.788 32.3542 909.454 33.0956 908.621 33.7697Z" fill="#FBE492"/>
<path d="M653.61 659.149C652.777 658.273 650.694 657.599 652.527 656.722C653.277 657.599 655.36 658.34 653.61 659.149Z" fill="#FBE492"/>
<path d="M666.444 659.284C665.861 658.407 664.777 657.599 666.194 657.127C667.194 658.003 668.111 658.205 666.444 659.284Z" fill="#FBE492"/>
<path d="M755.198 69.0222C753.864 69.157 752.448 69.2918 750.531 69.494C752.531 66.7304 753.781 68.5503 755.198 69.0222Z" fill="#FBE492"/>
<path d="M668.611 654.97C669.528 655.442 670.444 655.846 671.361 656.318C669.278 656.924 668.444 656.25 668.611 654.97Z" fill="#FBE492"/>
<path d="M1368.81 643.646C1369.81 645.129 1368.97 645.668 1366.89 645.601C1367.47 644.926 1368.72 644.252 1368.81 643.646Z" fill="#FBE492"/>
<path d="M1647.65 37.5443C1647.98 36.8702 1647.82 35.7917 1648.98 36.331C1648.57 36.9376 1648.73 38.0835 1647.65 37.5443Z" fill="#FBE492"/>
<path d="M119.672 539.978C119.088 541.056 118.672 540.786 117.922 539.978C118.172 539.304 119.005 539.236 119.672 539.978Z" fill="#FBE492"/>
<path d="M1152.05 661.71C1153.3 661.778 1153.46 662.249 1153.21 663.193C1152.05 663.058 1152.3 661.845 1152.05 661.71Z" fill="#FBE492"/>
<path d="M1667.4 571.253C1666.24 568.557 1666.24 568.557 1668.82 567.344C1668.32 568.759 1667.99 569.703 1667.4 571.253Z" fill="#FBE492"/>
<path d="M1571.81 594.575C1573.57 594.575 1574.65 594.575 1575.82 594.575C1574.73 596.328 1574.73 596.328 1571.81 594.575Z" fill="#FBE492"/>
<path d="M1494.48 604.012C1495.15 604.416 1495.73 604.753 1496.4 605.158C1494.4 605.899 1494.4 605.899 1494.48 604.012Z" fill="#FBE492"/>
<path d="M1641.07 569.299C1640.73 570.242 1640.32 571.186 1639.65 572.871C1638.73 570.647 1640.48 570.107 1641.07 569.299Z" fill="#FBE492"/>
<path d="M939.289 68.8201C940.456 69.2919 942.872 69.0223 942.039 70.4378C940.456 70.1682 938.289 70.5726 939.289 68.8201Z" fill="#FBE492"/>
<path d="M1027.79 538.495C1027.04 538.899 1026.21 539.304 1024.96 539.91C1025.71 537.888 1026.21 538.293 1027.79 538.495Z" fill="#FBE492"/>
</g>
<defs>
<clipPath id="clip0">
<rect width="2014" height="676" fill="white"/>
</clipPath>
</defs>
</svg>
